<svg width="32" height="32" viewBox="0 0 32 32" fill="none" xmlns="http://www.w3.org/2000/svg">
<rect width="32" height="32" rx="6" fill="#DCE8FF"/>
<path d="M12.8433 10.6V12.232H8.84325L8.53925 14.312C8.76325 14.28 8.97125 14.264 9.27525 14.264C10.1873 14.264 11.1153 14.472 11.8033 14.936C12.5873 15.432 13.1633 16.312 13.1633 17.576C13.1633 19.56 11.5153 21.176 8.97125 21.176C7.75525 21.176 6.74725 20.872 6.20325 20.568L6.60325 19.08C7.05125 19.32 7.94725 19.624 8.89125 19.624C10.0433 19.624 11.1473 18.968 11.1473 17.736C11.1473 16.536 10.2673 15.752 8.20325 15.752C7.61125 15.752 7.17925 15.8 6.77925 15.848L7.45125 10.6H12.8433ZM16.1254 21.176C15.4214 21.176 14.9254 20.632 14.9254 19.912C14.9254 19.176 15.4374 18.648 16.1414 18.648C16.8614 18.648 17.3574 19.16 17.3574 19.912C17.3574 20.632 16.8774 21.176 16.1254 21.176ZM22.2426 10.424C24.7546 10.424 25.9226 12.664 25.9226 15.72C25.9226 19.08 24.6106 21.176 22.1146 21.176C19.7306 21.176 18.4506 19 18.4346 15.832C18.4346 12.584 19.8106 10.424 22.2426 10.424ZM22.1946 11.928C21.1546 11.928 20.4186 13.224 20.4186 15.816C20.4186 18.36 21.1066 19.672 22.1786 19.672C23.3466 19.672 23.9386 18.264 23.9386 15.768C23.9386 13.352 23.3786 11.928 22.1946 11.928Z" fill="#1B1C1F"/>
</svg>
