<svg width="28" height="28" viewBox="0 0 28 28" fill="none" xmlns="http://www.w3.org/2000/svg">
<path d="M7.39789 4.25922C7.49892 2.24277 6.21048 0.0860025 4.02967 0.0627805C3.69581 -0.0727735 3.06361 0.0394331 2.72695 0.134444C0.669855 0.715165 -0.434279 2.81309 0.160358 4.85247C0.50934 6.04957 1.19974 6.61302 2.25026 7.19336L2.24949 15.7583C2.24881 16.3825 2.13903 16.9888 2.61572 17.4736C3.15351 18.0209 4.08566 18.0455 4.63042 17.491C5.03039 17.0839 4.9907 16.5425 4.99096 16.015L4.99053 10.9046V7.19336C5.34784 7.09801 5.66199 6.8809 5.96194 6.67262C7.02282 7.21662 8.21413 7.88637 9.24273 8.48691L10.3019 9.1131C10.8185 9.41936 11.3723 9.82029 12.0047 9.65379C13.0379 9.38183 13.4438 8.09524 12.5824 7.36207C12.3771 7.18724 12.1235 7.06124 11.8908 6.92683L10.8695 6.33163C9.7116 5.64372 8.57093 4.92116 7.39789 4.25922Z" fill="#DCE8FF"/>
<path d="M25.6669 7.24908C25.9405 7.09073 26.2231 6.93705 26.4788 6.75076C29.1958 4.77277 28.0865 0.587489 24.6379 0.0628913C22.212 -0.208089 20.1238 2.02976 20.575 4.45598L6.41166 20.4154C6.16617 20.6909 5.90956 20.9622 5.69076 21.2598C3.96811 20.119 1.51793 20.6132 0.478374 22.4485C-0.522942 24.2162 0.10339 26.5422 1.89104 27.5301C4.74289 29.106 8.1581 26.4654 7.23955 23.3693C7.80725 22.8165 8.3232 22.206 8.85513 21.6189L19.2014 10.186C20.1815 9.093 21.1681 7.98582 22.1937 6.93705L22.8611 7.24908L22.8616 16.6569C22.8616 18.0481 22.8446 19.441 22.8611 20.8322C22.5051 20.873 22.2561 21.0657 21.9676 21.2598C20.7976 20.6285 19.5901 19.9169 18.44 19.2483C17.914 18.9431 17.066 18.3827 16.5171 18.1976C15.1495 17.7353 14.1504 19.6368 15.161 20.516C15.5399 20.8454 16.0506 21.0734 16.4852 21.3294C17.8206 22.1152 19.1865 22.8509 20.5257 23.6308C20.1407 28.3537 26.0085 29.3994 27.6005 25.8664C28.4612 23.9555 27.5814 21.6805 25.6669 20.8322V8.62788C25.6665 8.17372 25.6295 7.70002 25.6669 7.24908Z" fill="#DCE8FF"/>
<path d="M25.6669 7.24908C25.9405 7.09073 26.2231 6.93705 26.4788 6.75076C29.1958 4.77277 28.0865 0.587489 24.6379 0.0628913C22.212 -0.208089 20.1238 2.02976 20.575 4.45598L6.41166 20.4154C6.16617 20.6909 5.90956 20.9622 5.69076 21.2598C3.96811 20.119 1.51793 20.6132 0.478374 22.4485C-0.522942 24.2162 0.10339 26.5422 1.89104 27.5301C4.74289 29.106 8.1581 26.4654 7.23955 23.3693C7.80725 22.8165 8.3232 22.206 8.85513 21.6189L19.2014 10.186C20.1815 9.093 21.1681 7.98582 22.1937 6.93705L22.8611 7.24908L22.8616 16.6569C22.8616 18.0481 22.8446 19.441 22.8611 20.8322C22.5051 20.873 22.2561 21.0657 21.9676 21.2598C20.7976 20.6285 19.5901 19.9169 18.44 19.2483C17.914 18.9431 17.066 18.3827 16.5171 18.1976C15.1495 17.7353 14.1504 19.6368 15.161 20.516C15.5399 20.8454 16.0506 21.0734 16.4852 21.3294C17.8206 22.1152 19.1865 22.8509 20.5257 23.6308C20.1407 28.3537 26.0085 29.3994 27.6005 25.8664C28.4612 23.9555 27.5814 21.6805 25.6669 20.8322V8.62788C25.6665 8.17372 25.6295 7.70002 25.6669 7.24908Z" fill="#DCE8FF"/>
<path d="M7.39789 4.25922C7.49892 2.24277 6.21048 0.0860025 4.02967 0.0627805C3.69581 -0.0727735 3.06361 0.0394331 2.72695 0.134444C0.669855 0.715165 -0.434279 2.81309 0.160358 4.85247C0.50934 6.04957 1.19974 6.61302 2.25026 7.19336L2.24949 15.7583C2.24881 16.3825 2.13903 16.9888 2.61572 17.4736C3.15351 18.0209 4.08566 18.0455 4.63042 17.491C5.03039 17.0839 4.9907 16.5425 4.99096 16.015L4.99053 10.9046V7.19336C5.34784 7.09801 5.66199 6.8809 5.96194 6.67262C7.02282 7.21662 8.21413 7.88637 9.24273 8.48691L10.3019 9.1131C10.8185 9.41936 11.3723 9.82029 12.0047 9.65379C13.0379 9.38183 13.4438 8.09524 12.5824 7.36207C12.3771 7.18724 12.1235 7.06124 11.8908 6.92683L10.8695 6.33163C9.7116 5.64372 8.57093 4.92116 7.39789 4.25922Z" fill="#DCE8FF"/>
</svg>
