<svg width="706" height="180" viewBox="0 0 706 180" fill="none" xmlns="http://www.w3.org/2000/svg">
<path d="M47.5579 27.3807C48.2074 14.4178 39.9245 0.552873 25.905 0.403589C23.7588 -0.46783 19.6947 0.253499 17.5304 0.864283C4.30621 4.59749 -2.79179 18.0841 1.03087 31.1944C3.27433 38.8901 7.71262 42.5122 14.4659 46.243L14.461 101.304C14.4566 105.316 13.7509 109.214 16.8154 112.331C20.2726 115.848 26.265 116.007 29.767 112.442C32.3382 109.825 32.0831 106.344 32.0847 102.954L32.082 70.1007V46.243C34.379 45.63 36.3985 44.2343 38.3267 42.8954C45.1467 46.3926 52.8051 50.6981 59.4175 54.5587L66.2265 58.5842C69.5478 60.553 73.1077 63.1305 77.1729 62.0601C83.8153 60.3118 86.4247 52.0408 80.8868 47.3276C79.5671 46.2037 77.9365 45.3937 76.4409 44.5296L69.8755 40.7034C62.4317 36.281 55.0989 31.636 47.5579 27.3807Z" fill="#DCE8FF"/>
<path d="M164.999 46.6012C166.758 45.5833 168.574 44.5953 170.219 43.3977C187.685 30.6821 180.554 3.77672 158.384 0.404302C142.789 -1.33772 129.364 13.0485 132.265 28.6456L41.2153 131.242C39.6372 133.013 37.9875 134.757 36.5809 136.67C25.5068 129.337 9.75558 132.513 3.07274 144.311C-3.36429 155.676 0.662133 170.629 12.1542 176.979C30.4875 187.11 52.4424 170.135 46.5374 150.231C50.1869 146.678 53.5038 142.753 56.9233 138.979L123.435 65.4815C129.736 58.455 136.078 51.3374 142.671 44.5953L146.962 46.6012L146.965 107.08C146.965 116.024 146.855 124.978 146.962 133.922C144.673 134.184 143.073 135.423 141.218 136.67C133.696 132.612 125.934 128.038 118.54 123.739C115.159 121.777 109.708 118.174 106.179 116.984C97.3869 114.012 90.9641 126.236 97.4612 131.888C99.8969 134.006 103.18 135.472 105.974 137.117C114.558 142.169 123.339 146.899 131.948 151.912C129.474 182.274 167.195 188.996 177.429 166.284C182.963 154 177.306 139.374 164.999 133.922V55.465C164.996 52.5453 164.759 49.5001 164.999 46.6012Z" fill="#DCE8FF"/>
<path d="M164.999 46.6012C166.758 45.5833 168.574 44.5953 170.219 43.3977C187.685 30.6821 180.554 3.77672 158.384 0.404302C142.789 -1.33772 129.364 13.0485 132.265 28.6456L41.2153 131.242C39.6372 133.013 37.9875 134.757 36.5809 136.67C25.5068 129.337 9.75558 132.513 3.07274 144.311C-3.36429 155.676 0.662133 170.629 12.1542 176.979C30.4875 187.11 52.4424 170.135 46.5374 150.231C50.1869 146.678 53.5038 142.753 56.9233 138.979L123.435 65.4815C129.736 58.455 136.078 51.3374 142.671 44.5953L146.962 46.6012L146.965 107.08C146.965 116.024 146.855 124.978 146.962 133.922C144.673 134.184 143.073 135.423 141.218 136.67C133.696 132.612 125.934 128.038 118.54 123.739C115.159 121.777 109.708 118.174 106.179 116.984C97.3869 114.012 90.9641 126.236 97.4612 131.888C99.8969 134.006 103.18 135.472 105.974 137.117C114.558 142.169 123.339 146.899 131.948 151.912C129.474 182.274 167.195 188.996 177.429 166.284C182.963 154 177.306 139.374 164.999 133.922V55.465C164.996 52.5453 164.759 49.5001 164.999 46.6012Z" fill="#DCE8FF"/>
<path d="M47.5579 27.3807C48.2074 14.4178 39.9245 0.552873 25.905 0.403589C23.7588 -0.46783 19.6947 0.253499 17.5304 0.864283C4.30621 4.59749 -2.79179 18.0841 1.03087 31.1944C3.27433 38.8901 7.71262 42.5122 14.4659 46.243L14.461 101.304C14.4566 105.316 13.7509 109.214 16.8154 112.331C20.2726 115.848 26.265 116.007 29.767 112.442C32.3382 109.825 32.0831 106.344 32.0847 102.954L32.082 70.1007V46.243C34.379 45.63 36.3985 44.2343 38.3267 42.8954C45.1467 46.3926 52.8051 50.6981 59.4175 54.5587L66.2265 58.5842C69.5478 60.553 73.1077 63.1305 77.1729 62.0601C83.8153 60.3118 86.4247 52.0408 80.8868 47.3276C79.5671 46.2037 77.9365 45.3937 76.4409 44.5296L69.8755 40.7034C62.4317 36.281 55.0989 31.636 47.5579 27.3807Z" fill="#DCE8FF"/>
<path d="M269.449 70.9571V135.5H255.049V44.2143H266.878L318.563 110.171V44.3429H333.092V135.5H320.492L269.449 70.9571ZM381.154 136.786C375.925 136.786 371.168 135.886 366.882 134.086C362.682 132.2 359.039 129.671 355.954 126.5C352.868 123.243 350.468 119.557 348.754 115.443C347.125 111.243 346.311 106.786 346.311 102.071C346.311 95.7286 347.768 89.9429 350.682 84.7143C353.596 79.4 357.668 75.1571 362.896 71.9857C368.125 68.7286 374.254 67.1 381.282 67.1C388.311 67.1 394.354 68.7286 399.411 71.9857C404.554 75.1571 408.539 79.3571 411.368 84.5857C414.196 89.8143 415.611 95.4286 415.611 101.429C415.611 102.457 415.568 103.443 415.482 104.386C415.396 105.243 415.311 105.971 415.225 106.571H361.354C361.611 110.514 362.682 113.986 364.568 116.986C366.539 119.9 369.025 122.214 372.025 123.929C375.025 125.557 378.239 126.371 381.668 126.371C385.439 126.371 388.996 125.429 392.339 123.543C395.768 121.657 398.082 119.171 399.282 116.086L411.368 119.557C409.911 122.814 407.682 125.771 404.682 128.429C401.768 131 398.296 133.057 394.268 134.6C390.239 136.057 385.868 136.786 381.154 136.786ZM360.968 97.1857H401.596C401.339 93.3286 400.225 89.9429 398.254 87.0286C396.368 84.0286 393.925 81.7143 390.925 80.0857C388.011 78.3714 384.754 77.5143 381.154 77.5143C377.639 77.5143 374.382 78.3714 371.382 80.0857C368.468 81.7143 366.068 84.0286 364.182 87.0286C362.296 89.9429 361.225 93.3286 360.968 97.1857ZM432.607 68.2571L448.55 91.2714L449.707 93.4571L450.864 91.2714L466.679 68.2571H481.979L457.807 101.943L482.236 135.5H466.936L450.864 112.614L449.707 110.557L448.55 112.614L432.479 135.5H417.179L441.607 102.071L417.436 68.2571H432.607ZM486.296 115.829C486.296 111.543 487.496 107.814 489.896 104.643C492.382 101.386 495.767 98.9 500.053 97.1857C504.339 95.3857 509.31 94.4857 514.967 94.4857C517.967 94.4857 521.01 94.7 524.096 95.1286C527.267 95.5571 530.053 96.2429 532.453 97.1857V92.9429C532.453 88.2286 531.039 84.5429 528.21 81.8857C525.382 79.2286 521.31 77.9 515.996 77.9C512.224 77.9 508.667 78.5857 505.324 79.9571C501.982 81.2429 498.424 83.0857 494.653 85.4857L489.896 75.9714C494.353 72.9714 498.81 70.7429 503.267 69.2857C507.81 67.8286 512.567 67.1 517.539 67.1C526.539 67.1 533.61 69.5 538.753 74.3C543.982 79.0143 546.596 85.7429 546.596 94.4857V119.557C546.596 121.186 546.853 122.343 547.367 123.029C547.967 123.714 548.953 124.1 550.324 124.186V135.5C549.039 135.757 547.882 135.929 546.853 136.014C545.824 136.1 544.967 136.143 544.282 136.143C541.282 136.143 539.01 135.414 537.467 133.957C535.924 132.5 535.024 130.786 534.767 128.814L534.382 124.957C531.467 128.729 527.739 131.643 523.196 133.7C518.653 135.757 514.067 136.786 509.439 136.786C504.982 136.786 500.996 135.886 497.482 134.086C493.967 132.2 491.224 129.671 489.253 126.5C487.282 123.329 486.296 119.771 486.296 115.829ZM529.11 119.943C530.139 118.829 530.953 117.714 531.553 116.6C532.153 115.486 532.453 114.5 532.453 113.643V105.929C530.053 104.986 527.524 104.3 524.867 103.871C522.21 103.357 519.596 103.1 517.024 103.1C511.882 103.1 507.682 104.129 504.424 106.186C501.253 108.243 499.667 111.071 499.667 114.671C499.667 116.643 500.182 118.529 501.21 120.329C502.324 122.129 503.867 123.586 505.839 124.7C507.896 125.814 510.424 126.371 513.424 126.371C516.51 126.371 519.467 125.771 522.296 124.571C525.124 123.371 527.396 121.829 529.11 119.943ZM619.66 44.2143H633.288L668.774 135.5H653.602L643.96 110.686H608.731L599.217 135.5H583.917L619.66 44.2143ZM641.131 100.014L626.474 60.0286L611.302 100.014H641.131ZM680.063 135.5V44.2143H694.463V135.5H680.063Z" fill="#DCE8FF"/>
</svg>
