<svg width="143" height="38" viewBox="0 0 143 38" fill="none" xmlns="http://www.w3.org/2000/svg">
<path d="M9.79285 5.63809C9.92659 2.96883 8.22104 0.113845 5.33421 0.0831048C4.89227 -0.096333 4.05542 0.0521991 3.60977 0.177968C0.886711 0.94669 -0.574871 3.72379 0.212272 6.42339C0.674232 8.00804 1.58814 8.75389 2.97875 9.5221L2.97773 20.8599C2.97683 21.6861 2.83151 22.4887 3.46253 23.1305C4.17442 23.8549 5.40834 23.8875 6.12946 23.1535C6.6589 22.6146 6.60637 21.8979 6.60671 21.1997L6.60615 14.4348V9.5221C7.07913 9.39588 7.49497 9.10849 7.89203 8.83279C9.29636 9.5529 10.8733 10.4395 12.2349 11.2344L13.637 12.0633C14.3209 12.4687 15.0539 12.9995 15.891 12.7791C17.2588 12.4191 17.7961 10.716 16.6558 9.74543C16.384 9.51401 16.0483 9.34722 15.7403 9.1693L14.3884 8.38141C12.8556 7.47079 11.3457 6.51432 9.79285 5.63809Z" fill="#DCE8FF"/>
<path d="M33.9753 9.59638C34.3375 9.38676 34.7115 9.18333 35.0501 8.93673C38.6466 6.31839 37.1782 0.778189 32.6132 0.0837602C29.4018 -0.274947 26.6376 2.68738 27.2349 5.89905L8.48641 27.025C8.16145 27.3898 7.82176 27.7489 7.53212 28.1428C5.25179 26.6328 2.0084 27.2869 0.632302 29.7163C-0.693176 32.0564 0.135922 35.1354 2.5023 36.4431C6.27739 38.5292 10.7982 35.0337 9.58231 30.9352C10.3338 30.2036 11.0168 29.3954 11.7209 28.6182L25.4166 13.4841C26.7141 12.0372 28.02 10.5716 29.3776 9.18333L30.2612 9.59638L30.2617 22.0499C30.2617 23.8915 30.2392 25.7353 30.2612 27.5769C29.7899 27.6309 29.4603 27.886 29.0784 28.1428C27.5296 27.3072 25.9312 26.3653 24.4088 25.4802C23.7125 25.0761 22.59 24.3343 21.8633 24.0893C20.053 23.4773 18.7304 25.9944 20.0683 27.1582C20.5698 27.5943 21.2458 27.8961 21.8212 28.235C23.5888 29.2752 25.3969 30.2491 27.1696 31.2814C26.6601 37.5334 34.4275 38.9175 36.5348 34.2408C37.6742 31.7113 36.5095 28.6997 33.9753 27.5769V11.4215C33.9747 10.8204 33.9258 10.1933 33.9753 9.59638Z" fill="#DCE8FF"/>
<path d="M33.9753 9.59638C34.3375 9.38676 34.7115 9.18333 35.0501 8.93673C38.6466 6.31839 37.1782 0.778189 32.6132 0.0837602C29.4018 -0.274947 26.6376 2.68738 27.2349 5.89905L8.48641 27.025C8.16145 27.3898 7.82176 27.7489 7.53212 28.1428C5.25179 26.6328 2.0084 27.2869 0.632302 29.7163C-0.693176 32.0564 0.135922 35.1354 2.5023 36.4431C6.27739 38.5292 10.7982 35.0337 9.58231 30.9352C10.3338 30.2036 11.0168 29.3954 11.7209 28.6182L25.4166 13.4841C26.7141 12.0372 28.02 10.5716 29.3776 9.18333L30.2612 9.59638L30.2617 22.0499C30.2617 23.8915 30.2392 25.7353 30.2612 27.5769C29.7899 27.6309 29.4603 27.886 29.0784 28.1428C27.5296 27.3072 25.9312 26.3653 24.4088 25.4802C23.7125 25.0761 22.59 24.3343 21.8633 24.0893C20.053 23.4773 18.7304 25.9944 20.0683 27.1582C20.5698 27.5943 21.2458 27.8961 21.8212 28.235C23.5888 29.2752 25.3969 30.2491 27.1696 31.2814C26.6601 37.5334 34.4275 38.9175 36.5348 34.2408C37.6742 31.7113 36.5095 28.6997 33.9753 27.5769V11.4215C33.9747 10.8204 33.9258 10.1933 33.9753 9.59638Z" fill="#DCE8FF"/>
<path d="M9.79285 5.63809C9.92659 2.96883 8.22104 0.113845 5.33421 0.0831048C4.89227 -0.096333 4.05542 0.0521991 3.60977 0.177968C0.886711 0.94669 -0.574871 3.72379 0.212272 6.42339C0.674232 8.00804 1.58814 8.75389 2.97875 9.5221L2.97773 20.8599C2.97683 21.6861 2.83151 22.4887 3.46253 23.1305C4.17442 23.8549 5.40834 23.8875 6.12946 23.1535C6.6589 22.6146 6.60637 21.8979 6.60671 21.1997L6.60615 14.4348V9.5221C7.07913 9.39588 7.49497 9.10849 7.89203 8.83279C9.29636 9.5529 10.8733 10.4395 12.2349 11.2344L13.637 12.0633C14.3209 12.4687 15.0539 12.9995 15.891 12.7791C17.2588 12.4191 17.7961 10.716 16.6558 9.74543C16.384 9.51401 16.0483 9.34722 15.7403 9.1693L14.3884 8.38141C12.8556 7.47079 11.3457 6.51432 9.79285 5.63809Z" fill="#DCE8FF"/>
<path d="M55.4835 14.611V27.9013H52.5183V9.10425H54.954L65.5968 22.6858V9.13072H68.5885V27.9013H65.9939L55.4835 14.611Z" fill="white"/>
<path d="M78.485 28.166C77.4084 28.166 76.4288 27.9807 75.5464 27.6101C74.6815 27.2218 73.9314 26.7011 73.296 26.0481C72.6606 25.3774 72.1664 24.6184 71.8134 23.7712C71.4781 22.9064 71.3104 21.9886 71.3104 21.0179C71.3104 19.7118 71.6104 18.5204 72.2105 17.4438C72.8106 16.3495 73.649 15.4758 74.7256 14.8228C75.8023 14.1521 77.0642 13.8167 78.5115 13.8167C79.9588 13.8167 81.2031 14.1521 82.2445 14.8228C83.3034 15.4758 84.1242 16.3407 84.7066 17.4173C85.2891 18.4939 85.5803 19.65 85.5803 20.8855C85.5803 21.0973 85.5714 21.3003 85.5538 21.4944C85.5361 21.6709 85.5185 21.8209 85.5008 21.9445H74.4079C74.4609 22.7564 74.6815 23.4712 75.0698 24.0889C75.4758 24.689 75.9876 25.1656 76.6053 25.5186C77.2231 25.8539 77.885 26.0216 78.5909 26.0216C79.3675 26.0216 80.1 25.8274 80.7883 25.4392C81.4943 25.0509 81.9709 24.539 82.218 23.9036L84.7066 24.6184C84.4066 25.2891 83.9477 25.898 83.3299 26.4452C82.7298 26.9747 82.015 27.3983 81.1855 27.716C80.3559 28.016 79.4558 28.166 78.485 28.166ZM74.3285 20.0118H82.6945C82.6416 19.2176 82.4121 18.5204 82.0062 17.9203C81.6179 17.3026 81.1149 16.826 80.4971 16.4907C79.897 16.1377 79.2263 15.9612 78.485 15.9612C77.7614 15.9612 77.0907 16.1377 76.473 16.4907C75.8729 16.826 75.3787 17.3026 74.9904 17.9203C74.6021 18.5204 74.3815 19.2176 74.3285 20.0118Z" fill="white"/>
<path d="M89.0801 14.055L92.363 18.794L92.6012 19.2441L92.8395 18.794L96.0959 14.055H99.2464L94.2692 20.9914L99.2994 27.9013H96.1489L92.8395 23.1888L92.6012 22.7652L92.363 23.1888L89.0536 27.9013H85.9031L90.9333 21.0179L85.9561 14.055H89.0801Z" fill="white"/>
<path d="M100.135 23.8507C100.135 22.9682 100.382 22.2004 100.877 21.5474C101.389 20.8767 102.086 20.3648 102.968 20.0118C103.851 19.6412 104.874 19.4559 106.039 19.4559C106.657 19.4559 107.284 19.5 107.919 19.5882C108.572 19.6765 109.146 19.8177 109.64 20.0118V19.1382C109.64 18.1674 109.349 17.4085 108.766 16.8613C108.184 16.3142 107.345 16.0406 106.251 16.0406C105.474 16.0406 104.742 16.1818 104.054 16.4642C103.365 16.729 102.633 17.1084 101.856 17.6026L100.877 15.6435C101.794 15.0258 102.712 14.5669 103.63 14.2668C104.565 13.9668 105.545 13.8167 106.569 13.8167C108.422 13.8167 109.878 14.3109 110.937 15.2993C112.014 16.2701 112.552 17.6556 112.552 19.4559V24.6184C112.552 24.9538 112.605 25.1921 112.711 25.3333C112.834 25.4745 113.037 25.5539 113.32 25.5715V27.9013C113.055 27.9543 112.817 27.9895 112.605 28.0072C112.393 28.0248 112.217 28.0337 112.075 28.0337C111.458 28.0337 110.99 27.8836 110.672 27.5836C110.355 27.2836 110.169 26.9306 110.116 26.5246L110.037 25.7304C109.437 26.507 108.669 27.1071 107.734 27.5307C106.798 27.9543 105.854 28.166 104.901 28.166C103.983 28.166 103.162 27.9807 102.439 27.6101C101.715 27.2218 101.15 26.7011 100.744 26.0481C100.338 25.395 100.135 24.6626 100.135 23.8507ZM108.951 24.6979C109.163 24.4684 109.331 24.239 109.454 24.0095C109.578 23.7801 109.64 23.5771 109.64 23.4006V21.8121C109.146 21.618 108.625 21.4768 108.078 21.3885C107.531 21.2826 106.992 21.2297 106.463 21.2297C105.404 21.2297 104.539 21.4415 103.868 21.8651C103.215 22.2887 102.889 22.8711 102.889 23.6124C102.889 24.0183 102.995 24.4066 103.206 24.7773C103.436 25.1479 103.754 25.448 104.16 25.6774C104.583 25.9069 105.104 26.0216 105.722 26.0216C106.357 26.0216 106.966 25.898 107.548 25.6509C108.131 25.4039 108.598 25.0862 108.951 24.6979Z" fill="white"/>
<path d="M127.597 9.10425H130.403L137.71 27.9013H134.586L132.601 22.7917H125.347L123.387 27.9013H120.237L127.597 9.10425ZM132.018 20.5943L129 12.3606L125.876 20.5943H132.018Z" fill="white"/>
<path d="M140.035 27.9013V9.10425H143V27.9013H140.035Z" fill="white"/>
</svg>
