<svg width="16" height="16" viewBox="0 0 16 16" fill="none" xmlns="http://www.w3.org/2000/svg">
<path d="M15.1824 15.085C15.3891 15.085 15.5567 14.9174 15.5567 14.7107L15.5567 0.885775C15.5567 0.769449 15.5338 0.654257 15.4893 0.54678C15.4448 0.439302 15.3796 0.341646 15.2973 0.259391C15.2151 0.177137 15.1174 0.111896 15.0099 0.0673977C14.9025 0.0228986 14.7873 1.38877e-05 14.6709 5.04185e-05L0.846024 5.06082e-05C0.639307 5.07504e-05 0.471735 0.167637 0.471754 0.374353L0.471846 1.39742C0.471864 1.60411 0.639425 1.77166 0.846115 1.77166L12.5322 1.77166L0.109631 14.1942C-0.0365306 14.3404 -0.0365313 14.5774 0.10963 14.7235L0.833179 15.4471C0.97934 15.5932 1.21631 15.5932 1.36247 15.4471L13.7851 3.0245L13.7852 14.7107C13.7852 14.9174 13.9528 15.085 14.1595 15.085H15.1824Z" fill="#DCE8FF"/>
</svg>
