<svg width="17" height="15" viewBox="0 0 17 15" fill="none" xmlns="http://www.w3.org/2000/svg">
<path d="M0 13.3975V11.3596C0 10.9107 0.121917 10.495 0.36575 10.1124C0.609584 9.72988 0.935458 9.43578 1.34337 9.23015C2.24935 8.78602 3.16334 8.45289 4.08535 8.23075C5.00737 8.00861 5.93725 7.89754 6.875 7.89754C7.36389 7.89754 7.84957 7.92749 8.33204 7.98737C8.81436 8.04726 9.29821 8.13893 9.78358 8.26237L8.63615 9.42402C8.33502 9.38078 8.04146 9.34473 7.75546 9.31585C7.46946 9.28698 7.17597 9.27254 6.875 9.27254C6.03931 9.27254 5.21102 9.37269 4.39015 9.57298C3.56942 9.77342 2.76413 10.0681 1.97427 10.4571C1.78987 10.557 1.64389 10.686 1.53633 10.8439C1.42878 11.0021 1.375 11.1739 1.375 11.3596V12.0225H6.80442V13.3975H0ZM8.81421 14.4904V12.0684L13.7906 7.11471C13.9045 7.00074 14.0276 6.92053 14.1598 6.87408C14.2919 6.82779 14.4241 6.80465 14.5562 6.80465C14.7003 6.80465 14.8397 6.83161 14.9744 6.88554C15.1092 6.93962 15.2316 7.02075 15.3418 7.12892L16.1897 7.98554C16.2884 8.09967 16.3648 8.22311 16.4189 8.35588C16.473 8.48864 16.5 8.6214 16.5 8.75417C16.5 8.88693 16.4753 9.02206 16.426 9.15956C16.3766 9.29706 16.2979 9.4228 16.1897 9.53677L11.2363 14.4904H8.81421ZM9.9071 13.3975H10.7779L13.7534 10.4076L13.3322 9.97219L12.9055 9.54227L9.9071 12.5267V13.3975ZM13.3322 9.97219L12.9055 9.54227L13.7534 10.4076L13.3322 9.97219ZM6.875 6.41667C5.99271 6.41667 5.23745 6.10256 4.60923 5.47433C3.98085 4.84596 3.66667 4.09062 3.66667 3.20833C3.66667 2.32604 3.98085 1.57078 4.60923 0.942563C5.23745 0.314188 5.99271 0 6.875 0C7.75729 0 8.51255 0.314188 9.14077 0.942563C9.76915 1.57078 10.0833 2.32604 10.0833 3.20833C10.0833 4.09062 9.76915 4.84596 9.14077 5.47433C8.51255 6.10256 7.75729 6.41667 6.875 6.41667ZM6.875 5.04167C7.37917 5.04167 7.81076 4.86215 8.16979 4.50312C8.52882 4.1441 8.70833 3.7125 8.70833 3.20833C8.70833 2.70417 8.52882 2.27257 8.16979 1.91354C7.81076 1.55451 7.37917 1.375 6.875 1.375C6.37083 1.375 5.93924 1.55451 5.58021 1.91354C5.22118 2.27257 5.04167 2.70417 5.04167 3.20833C5.04167 3.7125 5.22118 4.1441 5.58021 4.50312C5.93924 4.86215 6.37083 5.04167 6.875 5.04167Z" fill="#121417"/>
</svg>
