<svg width="27" height="18" viewBox="0 0 27 18" fill="none" xmlns="http://www.w3.org/2000/svg">
<path d="M18.1514 8.42331C20.2524 8.42331 22.0272 6.56212 22.0272 4.15409C22.0272 1.80362 20.2428 0 18.1514 0C16.0695 0 14.2755 1.8324 14.2851 4.17328C14.2851 6.56212 16.0503 8.42331 18.1514 8.42331ZM7.061 8.64396C8.8934 8.64396 10.438 7.01303 10.438 4.92159C10.438 2.86853 8.87421 1.30475 7.061 1.30475C5.24778 1.30475 3.684 2.89731 3.69359 4.94078C3.69359 7.01303 5.23818 8.64396 7.061 8.64396ZM1.77484 17.3551H8.97015C7.94362 15.8872 9.0469 12.9899 11.2151 11.2822C10.1598 10.6011 8.78787 10.1022 7.061 10.1022C2.77259 10.1022 0 13.2586 0 15.8585C0 16.8082 0.479687 17.3551 1.77484 17.3551ZM12.1745 17.3455H24.1283C25.7112 17.3455 26.2581 16.8658 26.2581 15.9832C26.2581 13.5176 23.1209 10.1214 18.1514 10.1214C13.1722 10.1214 10.0447 13.5176 10.0447 15.9832C10.0447 16.8658 10.5915 17.3455 12.1745 17.3455Z" fill="#DCE8FF"/>
</svg>
